<?xml version="1.0" standalone="no"?>
<!DOCTYPE svg PUBLIC "-//W3C//DTD SVG 20010904//EN"
 "http://www.w3.org/TR/2001/REC-SVG-20010904/DTD/svg10.dtd">
<svg version="1.0" xmlns="http://www.w3.org/2000/svg"
 width="954.000000pt" height="980.000000pt" viewBox="0 0 954.000000 980.000000"
 preserveAspectRatio="xMidYMid meet">

<g transform="translate(0.000000,980.000000) scale(0.100000,-0.100000)"
fill="#000000" stroke="none">
<path d="M4457 9789 c-785 -69 -1496 -468 -1965 -1101 -138 -185 -275 -440
-357 -662 -47 -129 -108 -370 -130 -516 -23 -151 -31 -483 -16 -637 53 -522
261 -1023 594 -1425 671 -810 1740 -1164 2772 -916 646 154 1220 546 1597
1089 621 894 631 2069 26 2973 -138 207 -362 451 -548 600 -558 444 -1266 658
-1973 595z"/>
<path d="M4525 4193 c-1123 -72 -2334 -569 -3227 -1326 -689 -582 -1125 -1266
-1253 -1962 -33 -185 -45 -348 -45 -646 l0 -259 4770 0 4770 0 0 249 c0 371
-20 575 -80 811 -93 370 -277 745 -532 1087 -178 239 -475 549 -716 748 -896
740 -2052 1214 -3157 1295 -128 9 -409 11 -530 3z"/>
</g>
</svg>
